<?xml version="1.0" encoding="utf-8"?>
<!-- Generator: Adobe Illustrator 22.1.0, SVG Export Plug-In . SVG Version: 6.00 Build 0)  -->
<svg version="1.1" xmlns="http://www.w3.org/2000/svg" xmlns:xlink="http://www.w3.org/1999/xlink" x="0px" y="0px"
	 viewBox="0 0 600 435" style="enable-background:new 0 0 600 435;" xml:space="preserve">
<style type="text/css">
	.st0{display:none;}
	.st1{display:inline;fill:#50BCEB;}
	.st2{display:inline;}
	.st3{fill:#92D6F2;}
	.st4{fill:#E2941F;}
	.st5{fill:#CE8C2A;}
	.st6{fill:url(#SVGID_1_);}
	.st7{fill:url(#SVGID_2_);}
	.st8{fill:url(#SVGID_3_);}
	.st9{fill:#F4AE46;}
	.st10{display:inline;fill:#92D6F2;}
	.st11{fill:#E79999;}
	.st12{fill:#303030;}
	.st13{fill:#F7F1E6;}
	.st14{clip-path:url(#SVGID_5_);}
	.st15{fill:#E6A123;}
	.st16{fill:#D43D21;}
	.st17{opacity:0.2;}
	.st18{fill:#B71400;}
	.st19{fill:#CC2909;}
	.st20{fill:#D83515;}
</style>
<g id="Layer_1" class="st0">
	<rect x="-24" y="59" class="st1" width="819" height="412"/>
	<g class="st2">
		<path class="st3" d="M411.6,230.3c-10-0.9-34.9,3.8-34.7,26.2c0,0-6.8-6-15.9-1.1c0,0-6.5-6.9-16.6-4.9
			c-13.3,2.6-12.6,9.8-12.7,11.1c-3.9-2.5-11.1,1-11.4,4.4c0,0-20.8-1.1-25.3,3.8c-4.5,4.9,27.9,3.4,45.3,3.8s47.9-1.5,69.8-0.8
			c21.9,0.8,37,2.3,50.2,1.9c13.2-0.4,30.3-0.9,39-1.7c8.7-0.8-4.3-2.5-12.2-2.2c-13,0.5-12.5-2.2-12.5-2.2s0.9-10.6-11.7-14
			c-11.7-3.1-15.9,4.2-15.9,4.2s1.1-10.9-10.9-10.2C436.2,248.6,435.2,232.4,411.6,230.3z"/>
	</g>
	<g class="st2">
		<path class="st4" d="M99,355.7c0,0,84-4.3,150.5-15.7c46.9-8,103.8-69,122.9-69c19.1,0,33.6-18.7,74.7-18.7s53.1,14.9,87.9,17.4
			c34.8,2.5,48.7-4.3,63.9-0.9V572H99V355.7z"/>
		<path class="st5" d="M99,355.7c0,0,112.4-3.7,174.4-29.6c62-25.9,80-55.1,99.1-55.1c19.1,0,33.6-18.7,74.7-18.7
			s53.1,14.9,87.9,17.4c34.8,2.5,48.7-4.3,63.9-0.9v151.2c0,0-33-4.8-79.4-7.9c-40.1-2.7-260.3,2.8-237-2.1
			c12.8-2.7,180.8-1.1,181.9-8.6c1.3-9.1-33.2-9.8-26.5-16.5c8-8,29.4-3.8,37.2-1.3c-17-8.9-50.4-18.9-123-7.6
			C210,398.1,223.5,348.6,99,355.7L99,355.7z"/>
		<linearGradient id="SVGID_1_" gradientUnits="userSpaceOnUse" x1="543.9213" y1="313.2267" x2="543.9213" y2="267.8958">
			<stop  offset="1.260500e-02" style="stop-color:#E6A138"/>
			<stop  offset="1" style="stop-color:#E6A138;stop-opacity:0"/>
		</linearGradient>
		<path class="st6" d="M492.1,269c-11-2.3,8.3,6.9,20,8.6c15.8,2.3,52.2,10.5,39.9,22.8c-5.4,5.4,45.6,11.8,46.9,12.9v-44.4
			c-15.2-3.4-29,3.5-63.9,0.9c-2.4-0.2-4.7-0.4-6.9-0.7C506.7,266.3,522.5,275.2,492.1,269z"/>
		<linearGradient id="SVGID_2_" gradientUnits="userSpaceOnUse" x1="455.3992" y1="395.2249" x2="455.3992" y2="252.4475">
			<stop  offset="1.260500e-02" style="stop-color:#E6A138"/>
			<stop  offset="1" style="stop-color:#E6A138;stop-opacity:0"/>
		</linearGradient>
		<path class="st7" d="M475.2,383.7c5.7,3,15.9,7,25.2,9.2c33.8,8,73.6-6.4,78.2-22.5c5.6-19.4-25.8-39.1-36.1-46.9
			c-18.7-14.1-69.3-30-83.2-36.2c-8.2-3.7,5.6-9.9,1.3-12c-19-9.3-5.1-22.1-18-22.8c-37.6,1.3-51.7,18.6-70.1,18.6
			c-7,0-13.9,4-22.9,10.2c-26.4,22.3,56,44.8,51.1,55.6c-10.8,23.7-64.2,10.1-69.1,11C361.9,367.4,424.3,351.9,475.2,383.7z"/>
		<linearGradient id="SVGID_3_" gradientUnits="userSpaceOnUse" x1="212.5431" y1="364.6823" x2="212.5431" y2="334.099">
			<stop  offset="1.260500e-02" style="stop-color:#E6A138"/>
			<stop  offset="1" style="stop-color:#E6A138;stop-opacity:0"/>
		</linearGradient>
		<path class="st8" d="M249.3,334.5c-49.8,14.5-114.5,19.3-139.7,20.7c60.8-4.3,109.8,9.5,144.7,9.5c19.6,0,33.5-3.8,43.1-8.1
			c11.3-5,16.6-10.7,18-11.3C283.3,353.4,272.7,331.1,249.3,334.5z"/>
		<path class="st4" d="M99,356c0,0-103,15-112,34l13,22l99,0.6L99,356z"/>
		<path class="st9" d="M0,407.1c0,0,141.6,0.5,283.7-1.1c57-0.7,188.2-1,211.1-1c22.9,0,62.3,1.8,104.2,5.8l0,93.2H0V407.1z"/>
		<path class="st3" d="M157.7,340.6c0,0-2.2,0-6.1,0.3c-10,0.7-13.4,0.1-19.7,2c-6.3,1.9,16.5,1,21.4,1.1c4.8,0.1,22,0.7,30.2-0.3
			c8.3-1,11.3,1.6,20,1.6c8.7,0,22-2.6,36.2-2.1c14.3,0.4,25.9-2,39.5-2.4c9.1-0.3,0.8-1.7-2-2s-6.9,0.2-7.4-1c0,0,1.8-5.4-5.1-8
			c-6.1-2.3-9.1,2-9.1,2s-0.6-4.4-5.1-3.4c0,0,0.8-5.6-7.4-8.8c-10.2-4-13.6,0.7-13.6,0.7s-3.5-9.7-17.1-8
			c-13.7,1.7-12.9,12.7-12.9,12.7s-3.3-5.1-10.2-3.5c-7.5,1.8-6.2,9.3-6.1,9.9c-1.4-1-3.3,0.5-3,1.6c-4.6-5.9-18.2-2-15.5,4.3
			C162.5,335.6,155.9,337.6,157.7,340.6z"/>
	</g>
	<path class="st10" d="M54.6,245.3c-10-0.9-34.9,3.8-34.7,26.2c0,0-6.8-6-15.9-1.1c0,0-6.5-6.9-16.6-4.9
		c-13.3,2.6-12.6,9.8-12.7,11.1c-3.9-2.5-11.1,1-11.4,4.4c0,0-20.8-23.1-25.3-18.2c-4.5,4.9,27.9,25.4,45.3,25.8s47.9-1.5,69.8-0.8
		c21.9,0.8,37,2.3,50.2,1.9c13.2-0.4,30.3-0.9,39-1.7s-4.3-2.5-12.2-2.2c-13,0.5-12.5-2.2-12.5-2.2s0.9-10.6-11.7-14
		c-11.7-3.1-15.9,4.2-15.9,4.2s1.1-10.9-10.9-10.2C79.2,263.6,78.2,247.4,54.6,245.3z"/>
</g>
<g id="Layer_2">
	<rect x="-30" y="378" class="st11" width="643" height="74"/>
	<rect x="-18" y="-235.2" class="st12" width="626" height="508.2"/>
	<g>
		<defs>
			<rect id="SVGID_4_" x="-11.9" y="-228.2" width="618.5" height="618.5"/>
		</defs>
		<clipPath id="SVGID_5_">
			<use xlink:href="#SVGID_4_"  style="overflow:visible;"/>
		</clipPath>
		<g class="st14">
			<g>
				<path class="st15" d="M449.6-235.2c0,195.7,120.1,279.3,120.1,279.3v11.9c0,0-69.7,86.3-69.7,222.3c33.2,0,108.1,0,108.1,0
					v-513.5C608.2-235.2,475.5-235.2,449.6-235.2z"/>
				<rect x="568.2" y="44.1" class="st16" width="47.5" height="13.1"/>
			</g>
			<g class="st17">
				<path class="st13" d="M474.9-235.2c0,170.1,102.8,260.5,102.8,260.5s-65.9-116.1-65.9-260.5
					C486.4-235.2,517.4-235.2,474.9-235.2z"/>
			</g>
			<g class="st17">
				<path class="st13" d="M511.8,281c0-122.4,65.9-214.6,65.9-214.6S538.3,177.1,538.3,281C520,281,542.3,281,511.8,281z"/>
				<path class="st13" d="M552,284c-3.2-104.2,31.2-171.7,31.2-171.7s-12.3,91.3-9.6,171.7C558.7,284,576.9,284,552,284z"/>
			</g>
		</g>
		<g class="st14">
			<g>
				<path class="st15" d="M138.8-235.2C138.8-39.5,18.8,44.1,18.8,44.1v11.9c0,0,69.7,86.3,69.7,222.3c-33.2,0-108.1,0-108.1,0
					v-513.5C-19.7-235.2,113-235.2,138.8-235.2z"/>
				<rect x="-27.2" y="44.1" class="st16" width="47.5" height="13.1"/>
			</g>
			<g class="st17">
				<path class="st13" d="M116.8-231.6C116.8-61.5,14,29,14,29S79.9-87.2,79.9-231.6C105.3-231.6,74.3-231.6,116.8-231.6z"/>
			</g>
			<g class="st17">
				<path class="st13" d="M77.6,279.5c0-122.4-65.9-214.6-65.9-214.6s39.3,110.7,39.3,214.6C69.4,279.5,47.1,279.5,77.6,279.5z"/>
				<path class="st13" d="M37.4,282.5C40.7,178.3,6.2,110.8,6.2,110.8s12.3,91.3,9.6,171.7C30.7,282.5,12.5,282.5,37.4,282.5z"/>
			</g>
		</g>
		<g class="st14">
			<g>
				<g>
					<g>
						<path class="st18" d="M71.1,317.6c0,4.5-3.7,8.2-8.2,8.2H-42.5c-4.5,0-8.2-3.7-8.2-8.2v-69.3c0-4.5,3.7-8.2,8.2-8.2H62.9
							c4.5,0,8.2,3.7,8.2,8.2V317.6z"/>
						<path class="st18" d="M209.9,317.6c0,4.5-3.7,8.2-8.2,8.2H96.3c-4.5,0-8.2-3.7-8.2-8.2v-69.3c0-4.5,3.7-8.2,8.2-8.2h105.4
							c4.5,0,8.2,3.7,8.2,8.2V317.6z"/>
						<path class="st18" d="M351,317.6c0,4.5-3.7,8.2-8.2,8.2H237.4c-4.5,0-8.2-3.7-8.2-8.2v-69.3c0-4.5,3.7-8.2,8.2-8.2h105.4
							c4.5,0,8.2,3.7,8.2,8.2V317.6z"/>
						<path class="st18" d="M492.8,317.6c0,4.5-3.7,8.2-8.2,8.2H379.2c-4.5,0-8.2-3.7-8.2-8.2v-69.3c0-4.5,3.7-8.2,8.2-8.2h105.4
							c4.5,0,8.2,3.7,8.2,8.2V317.6z"/>
						<path class="st18" d="M633.6,317.6c0,4.5-3.7,8.2-8.2,8.2H520c-4.5,0-8.2-3.7-8.2-8.2v-69.3c0-4.5,3.7-8.2,8.2-8.2h105.4
							c4.5,0,8.2,3.7,8.2,8.2V317.6z"/>
					</g>
				</g>
				<g>
					<g>
						<path class="st19" d="M14.3,347.2c0,4.5-3.7,8.2-8.2,8.2H-99.3c-4.5,0-8.2-3.7-8.2-8.2v-69.3c0-4.5,3.7-8.2,8.2-8.2H6.1
							c4.5,0,8.2,3.7,8.2,8.2V347.2z"/>
						<path class="st19" d="M153.1,347.2c0,4.5-3.7,8.2-8.2,8.2H39.5c-4.5,0-8.2-3.7-8.2-8.2v-69.3c0-4.5,3.7-8.2,8.2-8.2h105.4
							c4.5,0,8.2,3.7,8.2,8.2V347.2z"/>
						<path class="st19" d="M294.2,347.2c0,4.5-3.7,8.2-8.2,8.2H180.6c-4.5,0-8.2-3.7-8.2-8.2v-69.3c0-4.5,3.7-8.2,8.2-8.2H286
							c4.5,0,8.2,3.7,8.2,8.2V347.2z"/>
						<path class="st19" d="M436,347.2c0,4.5-3.7,8.2-8.2,8.2H322.4c-4.5,0-8.2-3.7-8.2-8.2v-69.3c0-4.5,3.7-8.2,8.2-8.2h105.4
							c4.5,0,8.2,3.7,8.2,8.2V347.2z"/>
						<path class="st19" d="M576.8,347.2c0,4.5-3.7,8.2-8.2,8.2H463.2c-4.5,0-8.2-3.7-8.2-8.2v-69.3c0-4.5,3.7-8.2,8.2-8.2h105.4
							c4.5,0,8.2,3.7,8.2,8.2V347.2z"/>
						<path class="st19" d="M603.3,269.7c-4.5,0-8.2,3.7-8.2,8.2v69.3c0,4.5,3.7,8.2,8.2,8.2h25.4v-85.8H603.3z"/>
					</g>
					<g>
						<g>
							<path class="st20" d="M81.6,378.2c0,4.5-3.7,8.2-8.2,8.2H-32c-4.5,0-8.2-3.7-8.2-8.2v-69.3c0-4.5,3.7-8.2,8.2-8.2H73.4
								c4.5,0,8.2,3.7,8.2,8.2V378.2z"/>
							<path class="st20" d="M220.4,378.2c0,4.5-3.7,8.2-8.2,8.2H106.8c-4.5,0-8.2-3.7-8.2-8.2v-69.3c0-4.5,3.7-8.2,8.2-8.2h105.4
								c4.5,0,8.2,3.7,8.2,8.2V378.2z"/>
							<path class="st20" d="M361.5,378.2c0,4.5-3.7,8.2-8.2,8.2H247.9c-4.5,0-8.2-3.7-8.2-8.2v-69.3c0-4.5,3.7-8.2,8.2-8.2h105.4
								c4.5,0,8.2,3.7,8.2,8.2V378.2z"/>
							<path class="st20" d="M503.3,378.2c0,4.5-3.7,8.2-8.2,8.2H389.7c-4.5,0-8.2-3.7-8.2-8.2v-69.3c0-4.5,3.7-8.2,8.2-8.2h105.4
								c4.5,0,8.2,3.7,8.2,8.2V378.2z"/>
							<path class="st20" d="M644.1,378.2c0,4.5-3.7,8.2-8.2,8.2H530.5c-4.5,0-8.2-3.7-8.2-8.2v-69.3c0-4.5,3.7-8.2,8.2-8.2h105.4
								c4.5,0,8.2,3.7,8.2,8.2V378.2z"/>
						</g>
					</g>
				</g>
			</g>
		</g>
		<g class="st14">
			<g>
				<g>
					<path class="st11" d="M27.4,403.4c0,4.5-3.7,8.2-8.2,8.2H-86.2c-4.5,0-8.2-3.7-8.2-8.2v-69.3c0-4.5,3.7-8.2,8.2-8.2H19.2
						c4.5,0,8.2,3.7,8.2,8.2V403.4z"/>
				</g>
				<g>
					<path class="st11" d="M168.5,403.4c0,4.5-3.7,8.2-8.2,8.2H54.8c-4.5,0-8.2-3.7-8.2-8.2v-69.3c0-4.5,3.7-8.2,8.2-8.2h105.4
						c4.5,0,8.2,3.7,8.2,8.2V403.4z"/>
				</g>
				<g>
					<path class="st11" d="M310.3,403.4c0,4.5-3.7,8.2-8.2,8.2H196.7c-4.5,0-8.2-3.7-8.2-8.2v-69.3c0-4.5,3.7-8.2,8.2-8.2h105.4
						c4.5,0,8.2,3.7,8.2,8.2V403.4z"/>
				</g>
				<g>
					<path class="st11" d="M451.1,403.4c0,4.5-3.7,8.2-8.2,8.2H337.5c-4.5,0-8.2-3.7-8.2-8.2v-69.3c0-4.5,3.7-8.2,8.2-8.2h105.4
						c4.5,0,8.2,3.7,8.2,8.2V403.4z"/>
				</g>
				<g>
					<path class="st11" d="M591.2,403.4c0,4.5-3.7,8.2-8.2,8.2H477.5c-4.5,0-8.2-3.7-8.2-8.2v-69.3c0-4.5,3.7-8.2,8.2-8.2h105.4
						c4.5,0,8.2,3.7,8.2,8.2V403.4z"/>
				</g>
			</g>
		</g>
	</g>
</g>
</svg>
