<?xml version="1.0" encoding="utf-8"?>
<!-- Generator: Adobe Illustrator 22.1.0, SVG Export Plug-In . SVG Version: 6.00 Build 0)  -->
<svg version="1.1" id="Layer_1" xmlns="http://www.w3.org/2000/svg" xmlns:xlink="http://www.w3.org/1999/xlink" x="0px" y="0px"
	 viewBox="0 0 512 512" style="enable-background:new 0 0 512 512;" xml:space="preserve">
<g>
	<g>
		<path d="M439.8,239.8H72.2c-8.9,0-16.2,7.2-16.2,16.2s7.2,16.2,16.2,16.2h367.7c8.9,0,16.2-7.2,16.2-16.2
			C456,247.1,448.8,239.8,439.8,239.8z"/>
	</g>
</g>
<g>
	<g>
		<path d="M439.8,117.3H72.2c-8.9,0-16.2,7.2-16.2,16.2s7.2,16.2,16.2,16.2h367.7c8.9,0,16.2-7.2,16.2-16.2S448.8,117.3,439.8,117.3
			z"/>
	</g>
</g>
<g>
	<g>
		<path d="M439.8,362.4H72.2c-8.9,0-16.2,7.2-16.2,16.2s7.2,16.2,16.2,16.2h367.7c8.9,0,16.2-7.2,16.2-16.2S448.8,362.4,439.8,362.4
			z"/>
	</g>
</g>
</svg>
