<?xml version="1.0" encoding="utf-8"?>
<!-- Generator: Adobe Illustrator 22.1.0, SVG Export Plug-In . SVG Version: 6.00 Build 0)  -->
<svg version="1.1" id="Capa_1" xmlns="http://www.w3.org/2000/svg" xmlns:xlink="http://www.w3.org/1999/xlink" x="0px" y="0px"
	 viewBox="0 0 451 451" style="enable-background:new 0 0 451 451;" xml:space="preserve">
<g>
	<path d="M390.6,376.4l-81.7-81.7c21.9-25.2,35.2-58,35.2-93.9c0-79-64.3-143.3-143.3-143.3c-79,0-143.3,64.3-143.3,143.3
		S121.8,344,200.8,344c35.9,0,68.8-13.3,93.9-35.2l81.7,81.7c1.9,1.9,4.5,3,7.1,3s5.1-1,7.1-3C394.4,386.7,394.4,380.2,390.6,376.4z
		 M77.6,200.8c0-67.9,55.3-123.2,123.2-123.2c67.9,0,123.2,55.3,123.2,123.2S268.7,324,200.7,324C132.9,324,77.6,268.7,77.6,200.8z"
		/>
</g>
</svg>
